<?xml version="1.0" encoding="UTF-8"?>
<svg width="80px" height="36px" viewBox="0 0 80 36" version="1.1" xmlns="http://www.w3.org/2000/svg" xmlns:xlink="http://www.w3.org/1999/xlink">
    <!-- Generator: Sketch 53.2 (72643) - https://sketchapp.com -->
    <title>logo Biznet BW</title>
    <desc>Created with Sketch.</desc>
    <g id="Home" stroke="none" stroke-width="1" fill="none" fill-rule="evenodd">
        <g id="Home-BiznetGio-Copy" transform="translate(-100.000000, -17.000000)" fill="#FFFFFF">
            <g id="logo-Biznet-BW" transform="translate(100.000000, 17.000000)">
                <path d="M19.3898305,7.74339623 L19.3898305,7.74339623 C19.0508475,8.1509434 18.7118644,8.62641509 18.3050847,9.10188679 C16.9491525,10.6641509 15.4576271,12.4981132 15.8644068,14.1962264 C16.3389831,16.0981132 18.2372881,16.6415094 20.6101695,17.2528302 C21.6949153,17.5245283 22.9152542,17.8641509 24.0677966,18.3396226 C21.4237288,16.1660377 19.8644068,15.1471698 19.7966102,13.5169811 C19.6610169,12.0226415 20.8135593,11.2075472 22.1016949,9.30566038 C23.8644068,6.65660377 23.4576271,3.80377358 21.4237288,1.96981132 C21.7627119,4.48301887 19.5254237,7.53962264 19.3898305,7.74339623" id="XMLID_84_"></path>
                <path d="M27.3898305,21.6 C25.3559322,19.4264151 22.7118644,18.7471698 20.4067797,18.0679245 C18.440678,17.5245283 16.7457627,17.0490566 15.7288136,15.8264151 C16.4745763,18.0679245 18.5762712,19.3584906 21.4915254,21.6 C25.4915254,24.5886792 26.1016949,33.8943396 11.5932203,34.5056604 C11.5254237,34.5056604 11.3898305,34.5056604 11.2542373,34.5056604 C11.0508475,34.5056604 10.9830508,34.845283 11.2542373,34.9132075 C15.0508475,35.8641509 22.7118644,36.3396226 26.779661,32.4 C29.6949153,29.7509434 30.1016949,25.2679245 27.3898305,21.6" id="XMLID_83_"></path>
                <path d="M9.49152542,34.1660377 C4.94915254,31.7886792 5.49152542,19.4264151 5.49152542,14.6037736 C5.49152542,13.7886792 5.55932203,12.9735849 5.62711864,12.2264151 C5.69491525,11.2754717 5.83050847,10.2566038 6.16949153,9.23773585 C6.98305085,6.04528302 8.88135593,2.6490566 11.5932203,0.747169811 C9.62711864,1.35849057 7.18644068,2.44528302 5.08474576,4.41509434 C1.42372881,7.87924528 0.474576271,12.9056604 0.542372881,18.4075472 C0.677966102,31.6528302 6.71186441,33.8943396 9.3559322,34.5056604 C9.3559322,34.5056604 9.42372881,34.5056604 9.42372881,34.5056604 C9.55932203,34.5056604 9.62711864,34.4377358 9.62711864,34.3018868 C9.55932203,34.3018868 9.55932203,34.2339623 9.49152542,34.1660377" id="XMLID_82_"></path>
                <path d="M19.9322034,1.22264151 C19.5254237,0.81509434 18.9152542,0.611320755 18.9152542,0.611320755 C17.220339,6.9388939e-17 15.5932203,6.9388939e-17 14.1694915,0.40754717 C12.4067797,0.950943396 10.779661,2.24150943 9.42372881,4.14339623 C8.54237288,5.36603774 7.86440678,6.79245283 7.3220339,8.28679245 C9.83050847,4.21132075 14.8474576,2.58113208 17.9661017,3.80377358 C18.8474576,4.14339623 19.5254237,4.75471698 19.6610169,5.70566038 C20.4067797,4.27924528 21.220339,2.37735849 19.9322034,1.22264151" id="XMLID_80_"></path>
                <g id="Group" transform="translate(33.898305, 18.339623)">
                    <path d="M0.474576271,5.16226415 L0.474576271,5.16226415 C0.474576271,2.92075472 1.96610169,0.883018868 4.33898305,0.883018868 C5.49152542,0.883018868 6.30508475,1.22264151 6.98305085,1.83396226 C7.05084746,1.90188679 7.11864407,1.96981132 7.11864407,2.10566038 C7.11864407,2.24150943 6.98305085,2.44528302 6.84745763,2.44528302 C6.77966102,2.44528302 6.71186441,2.44528302 6.6440678,2.37735849 C6.03389831,1.90188679 5.3559322,1.56226415 4.27118644,1.56226415 C2.37288136,1.56226415 1.08474576,3.26037736 1.08474576,5.23018868 L1.08474576,5.23018868 C1.08474576,7.33584906 2.37288136,8.96603774 4.40677966,8.96603774 C5.42372881,8.96603774 6.30508475,8.49056604 6.91525424,8.01509434 L6.91525424,5.63773585 L4.54237288,5.63773585 C4.40677966,5.63773585 4.27118644,5.50188679 4.27118644,5.36603774 C4.27118644,5.23018868 4.40677966,5.09433962 4.54237288,5.09433962 L7.18644068,5.09433962 C7.3220339,5.09433962 7.45762712,5.23018868 7.45762712,5.43396226 L7.45762712,8.1509434 C7.45762712,8.28679245 7.38983051,8.42264151 7.25423729,8.49056604 C6.50847458,9.10188679 5.55932203,9.57735849 4.40677966,9.57735849 C1.96610169,9.37358491 0.474576271,7.47169811 0.474576271,5.16226415 Z" id="Path"></path>
                    <path d="M8.88135593,1.15471698 C8.88135593,0.950943396 9.09564165,0.81509434 9.38135593,0.81509434 C9.66707022,0.81509434 9.88135593,0.950943396 9.88135593,1.15471698 L9.88135593,1.35849057 C9.88135593,1.56226415 9.66707022,1.69811321 9.38135593,1.69811321 C9.09564165,1.69811321 8.88135593,1.56226415 8.88135593,1.35849057 L8.88135593,1.15471698 Z M8.9527845,3.46415094 C8.9527845,3.32830189 9.09564165,3.19245283 9.38135593,3.19245283 C9.66707022,3.19245283 9.80992736,3.32830189 9.80992736,3.46415094 L9.80992736,8.96603774 C9.80992736,9.16981132 9.66707022,9.23773585 9.38135593,9.23773585 C9.09564165,9.23773585 8.9527845,9.10188679 8.9527845,8.96603774 L8.9527845,3.46415094 Z" id="Shape" fill-rule="nonzero"></path>
                    <path d="M10.7118644,6.2490566 L10.7118644,6.2490566 C10.7118644,4.5509434 11.9322034,3.05660377 13.6271186,3.05660377 C15.3220339,3.05660377 16.5423729,4.48301887 16.5423729,6.18113208 L16.5423729,6.18113208 C16.5423729,7.87924528 15.3220339,9.30566038 13.6271186,9.30566038 C11.9322034,9.37358491 10.7118644,7.94716981 10.7118644,6.2490566 Z M15.9322034,6.2490566 L15.9322034,6.2490566 C15.9322034,4.75471698 14.9152542,3.6 13.559322,3.6 C12.2033898,3.6 11.2542373,4.75471698 11.2542373,6.18113208 L11.2542373,6.18113208 C11.2542373,7.60754717 12.2711864,8.83018868 13.6271186,8.83018868 C14.9830508,8.83018868 15.9322034,7.6754717 15.9322034,6.2490566 Z" id="Shape" fill-rule="nonzero"></path>
                    <path d="M17.4237288,5.16226415 L17.4237288,5.16226415 C17.4237288,2.78490566 19.0508475,0.883018868 21.3559322,0.883018868 C22.6440678,0.883018868 23.4576271,1.35849057 24.2033898,2.03773585 C24.2711864,2.10566038 24.3389831,2.17358491 24.3389831,2.30943396 C24.3389831,2.44528302 24.2033898,2.6490566 24.0677966,2.6490566 C24,2.6490566 23.9322034,2.58113208 23.8644068,2.58113208 C23.1864407,1.96981132 22.440678,1.49433962 21.3559322,1.49433962 C19.4576271,1.49433962 18.1016949,3.1245283 18.1016949,5.16226415 L18.1016949,5.16226415 C18.1016949,7.26792453 19.5254237,8.89811321 21.4237288,8.89811321 C22.5084746,8.89811321 23.2542373,8.49056604 23.9322034,7.74339623 C24,7.6754717 24.0677966,7.6754717 24.1355932,7.6754717 C24.2711864,7.6754717 24.4067797,7.81132075 24.4067797,7.94716981 C24.4067797,8.01509434 24.3389831,8.08301887 24.3389831,8.1509434 C23.5254237,8.89811321 22.7118644,9.44150943 21.3559322,9.44150943 C19.1186441,9.37358491 17.4237288,7.53962264 17.4237288,5.16226415 Z" id="Path"></path>
                    <path d="M25.559322,0.883018868 C25.559322,0.747169811 25.6949153,0.611320755 25.8305085,0.611320755 C25.9661017,0.611320755 26.1016949,0.747169811 26.1016949,0.883018868 L26.1016949,9.03396226 C26.1016949,9.23773585 25.9661017,9.30566038 25.8305085,9.30566038 C25.6949153,9.30566038 25.559322,9.16981132 25.559322,9.03396226 L25.559322,0.883018868 Z" id="Path"></path>
                    <path d="M27.2542373,6.2490566 L27.2542373,6.2490566 C27.2542373,4.5509434 28.4745763,3.05660377 30.1694915,3.05660377 C31.8644068,3.05660377 33.0847458,4.48301887 33.0847458,6.18113208 L33.0847458,6.18113208 C33.0847458,7.87924528 31.8644068,9.30566038 30.1694915,9.30566038 C28.4745763,9.37358491 27.2542373,7.94716981 27.2542373,6.2490566 Z M32.5423729,6.2490566 L32.5423729,6.2490566 C32.5423729,4.75471698 31.5254237,3.6 30.1694915,3.6 C28.8135593,3.6 27.8644068,4.75471698 27.8644068,6.18113208 L27.8644068,6.18113208 C27.8644068,7.60754717 28.8813559,8.83018868 30.2372881,8.83018868 C31.5254237,8.83018868 32.5423729,7.6754717 32.5423729,6.2490566 Z" id="Shape" fill-rule="nonzero"></path>
                    <path d="M38.9830508,8.96603774 C38.9830508,9.10188679 38.8474576,9.23773585 38.7118644,9.23773585 C38.5762712,9.23773585 38.440678,9.10188679 38.440678,8.96603774 L38.440678,8.1509434 C38.0338983,8.83018868 37.4237288,9.44150943 36.4067797,9.44150943 C34.9830508,9.44150943 34.1016949,8.42264151 34.1016949,6.92830189 L34.1016949,3.46415094 C34.1016949,3.26037736 34.2372881,3.19245283 34.3728814,3.19245283 C34.5084746,3.19245283 34.6440678,3.32830189 34.6440678,3.46415094 L34.6440678,6.79245283 C34.6440678,8.01509434 35.3220339,8.83018868 36.4745763,8.83018868 C37.6271186,8.83018868 38.440678,7.94716981 38.440678,6.65660377 L38.440678,3.39622642 C38.440678,3.19245283 38.5762712,3.1245283 38.7118644,3.1245283 C38.8474576,3.1245283 38.9830508,3.26037736 38.9830508,3.39622642 L38.9830508,8.96603774 L38.9830508,8.96603774 Z" id="Path"></path>
                    <path d="M45.8305085,8.96603774 C45.8305085,9.16981132 45.6949153,9.23773585 45.559322,9.23773585 C45.4237288,9.23773585 45.2881356,9.10188679 45.2881356,8.96603774 L45.2881356,7.87924528 C44.8135593,8.69433962 44.0677966,9.37358491 42.9152542,9.37358491 C41.559322,9.37358491 40.1355932,8.21886792 40.1355932,6.2490566 L40.1355932,6.2490566 C40.1355932,4.27924528 41.559322,3.1245283 42.9152542,3.1245283 C44.0677966,3.1245283 44.8135593,3.80377358 45.2881356,4.5509434 L45.2881356,0.883018868 C45.2881356,0.679245283 45.4237288,0.611320755 45.559322,0.611320755 C45.6949153,0.611320755 45.8305085,0.747169811 45.8305085,0.883018868 L45.8305085,8.96603774 Z M40.7457627,6.18113208 L40.7457627,6.18113208 C40.7457627,7.81132075 41.7627119,8.83018868 42.9830508,8.83018868 C44.2033898,8.83018868 45.2881356,7.74339623 45.2881356,6.2490566 L45.2881356,6.2490566 C45.2881356,4.68679245 44.1355932,3.66792453 42.9830508,3.66792453 C41.6949153,3.6 40.7457627,4.61886792 40.7457627,6.18113208 Z" id="Shape" fill-rule="nonzero"></path>
                </g>
                <g id="Group" transform="translate(33.898305, 7.471698)">
                    <g transform="translate(0.000000, 0.117562)">
                        <path d="M0.474576271,1.35849057 C0.474576271,0.950943396 0.813559322,0.611320755 1.22033898,0.611320755 L4.33898305,0.611320755 C5.28813559,0.611320755 6.10169492,0.883018868 6.57627119,1.35849057 C6.98305085,1.76603774 7.18644068,2.17358491 7.18644068,2.78490566 L7.18644068,2.78490566 C7.18644068,3.80377358 6.57627119,4.34716981 5.96610169,4.68679245 C6.98305085,5.02641509 7.66101695,5.56981132 7.66101695,6.7245283 L7.66101695,6.7245283 C7.66101695,8.21886792 6.37288136,9.03396226 4.47457627,9.03396226 L1.22033898,9.03396226 C0.813559322,9.03396226 0.474576271,8.69433962 0.474576271,8.28679245 L0.474576271,1.35849057 L0.474576271,1.35849057 Z M4,4.14339623 C4.94915254,4.14339623 5.62711864,3.73584906 5.62711864,2.98867925 L5.62711864,2.98867925 C5.62711864,2.30943396 5.08474576,1.90188679 4.13559322,1.90188679 L1.96610169,1.90188679 L1.96610169,4.14339623 L4,4.14339623 L4,4.14339623 Z M4.47457627,7.74339623 C5.49152542,7.74339623 6.10169492,7.33584906 6.10169492,6.58867925 L6.10169492,6.58867925 C6.10169492,5.84150943 5.49152542,5.43396226 4.33898305,5.43396226 L1.96610169,5.43396226 L1.96610169,7.74339623 L4.47457627,7.74339623 Z" id="Shape" fill-rule="nonzero"></path>
                        <path d="M8.47457627,1.29056604 C8.47457627,0.883018868 8.81355932,0.611320755 9.28813559,0.611320755 C9.76271186,0.611320755 10.1016949,0.883018868 10.1016949,1.29056604 L10.1016949,1.35849057 C10.1016949,1.76603774 9.76271186,2.03773585 9.28813559,2.03773585 C8.81355932,2.03773585 8.47457627,1.76603774 8.47457627,1.35849057 L8.47457627,1.29056604 Z M8.61016949,3.53207547 C8.61016949,3.1245283 8.94915254,2.85283019 9.3559322,2.85283019 C9.76271186,2.85283019 10.1016949,3.19245283 10.1016949,3.53207547 L10.1016949,8.35471698 C10.1016949,8.76226415 9.76271186,9.03396226 9.3559322,9.03396226 C8.94915254,9.03396226 8.61016949,8.69433962 8.61016949,8.35471698 L8.61016949,3.53207547 Z" id="Shape" fill-rule="nonzero"></path>
                        <path d="M10.9830508,8.49056604 L10.9830508,8.49056604 C10.9830508,8.21886792 11.0508475,8.01509434 11.3220339,7.81132075 L14.6440678,4.0754717 L11.6610169,4.0754717 C11.3220339,4.0754717 11.0508475,3.80377358 11.0508475,3.53207547 C11.0508475,3.19245283 11.3220339,2.92075472 11.6610169,2.92075472 L15.7966102,2.92075472 C16.2033898,2.92075472 16.4745763,3.19245283 16.4745763,3.46415094 L16.4745763,3.53207547 C16.4745763,3.80377358 16.4067797,4.00754717 16.1355932,4.21132075 L12.8135593,7.94716981 L15.8644068,7.94716981 C16.2033898,7.94716981 16.4745763,8.21886792 16.4745763,8.55849057 C16.4745763,8.89811321 16.2033898,9.10188679 15.8644068,9.10188679 L11.5932203,9.10188679 C11.2542373,9.03396226 10.9830508,8.83018868 10.9830508,8.49056604 Z" id="Path"></path>
                        <path d="M17.3559322,3.53207547 C17.3559322,3.1245283 17.6949153,2.85283019 18.1016949,2.85283019 C18.5084746,2.85283019 18.8474576,3.19245283 18.8474576,3.53207547 L18.8474576,3.87169811 C19.2542373,3.26037736 19.7966102,2.78490566 20.8135593,2.78490566 C22.2372881,2.78490566 23.0508475,3.73584906 23.0508475,5.16226415 L23.0508475,8.42264151 C23.0508475,8.83018868 22.7118644,9.10188679 22.3050847,9.10188679 C21.8983051,9.10188679 21.559322,8.76226415 21.559322,8.42264151 L21.559322,5.56981132 C21.559322,4.61886792 21.0847458,4.0754717 20.2033898,4.0754717 C19.3898305,4.0754717 18.779661,4.61886792 18.779661,5.56981132 L18.779661,8.42264151 C18.779661,8.83018868 18.440678,9.10188679 18.0338983,9.10188679 C17.6271186,9.10188679 17.2881356,8.76226415 17.2881356,8.42264151 L17.3559322,3.53207547 L17.3559322,3.53207547 Z" id="Path"></path>
                        <path d="M23.7288136,6.04528302 L23.7288136,6.04528302 C23.7288136,4.27924528 25.0169492,2.85283019 26.779661,2.85283019 C28.7457627,2.85283019 29.7627119,4.48301887 29.7627119,5.84150943 C29.7627119,6.2490566 29.4237288,6.52075472 29.0847458,6.52075472 L25.1525424,6.52075472 C25.2881356,7.53962264 26.0338983,8.08301887 26.9830508,8.08301887 C27.5932203,8.08301887 28.0677966,7.87924528 28.4745763,7.53962264 C28.5423729,7.47169811 28.6779661,7.40377358 28.8135593,7.40377358 C29.1525424,7.40377358 29.4237288,7.6754717 29.4237288,7.94716981 C29.4237288,8.1509434 29.3559322,8.28679245 29.220339,8.35471698 C28.6101695,8.83018868 27.9322034,9.16981132 26.9830508,9.16981132 C25.1525424,9.16981132 23.7288136,7.94716981 23.7288136,6.04528302 Z M28.3389831,5.56981132 C28.2711864,4.68679245 27.6610169,3.93962264 26.779661,3.93962264 C25.8983051,3.93962264 25.2881356,4.61886792 25.1525424,5.56981132 L28.3389831,5.56981132 Z" id="Shape" fill-rule="nonzero"></path>
                        <path d="M30.9152542,7.33584906 L30.9152542,4.0754717 L30.6440678,4.0754717 C30.3050847,4.0754717 30.0338983,3.80377358 30.0338983,3.46415094 C30.0338983,3.1245283 30.3050847,2.85283019 30.6440678,2.85283019 L30.9152542,2.85283019 L30.9152542,1.83396226 C30.9152542,1.42641509 31.2542373,1.15471698 31.6610169,1.15471698 C32.0677966,1.15471698 32.4067797,1.49433962 32.4067797,1.83396226 L32.4067797,2.85283019 L33.4915254,2.85283019 C33.8305085,2.85283019 34.1016949,3.1245283 34.1016949,3.46415094 C34.1016949,3.80377358 33.8305085,4.0754717 33.4915254,4.0754717 L32.4067797,4.0754717 L32.4067797,7.06415094 C32.4067797,7.60754717 32.6779661,7.81132075 33.1525424,7.81132075 C33.2881356,7.81132075 33.4915254,7.74339623 33.4915254,7.74339623 C33.8305085,7.74339623 34.1016949,8.01509434 34.1016949,8.35471698 C34.1016949,8.62641509 33.8983051,8.83018868 33.6949153,8.89811321 C33.3559322,9.03396226 33.0847458,9.03396226 32.7457627,9.03396226 C31.6610169,9.16981132 30.9152542,8.69433962 30.9152542,7.33584906 Z" id="Path"></path>
                    </g>
                    <g transform="translate(33.497689, 0.000000)" fill-rule="nonzero" id="Shape">
                        <path d="M0,1.29056604 C0,0.950943396 0.271186441,0.611320755 0.677966102,0.611320755 C1.08474576,0.611320755 1.3559322,0.883018868 1.3559322,1.29056604 C1.3559322,1.63018868 1.08474576,1.96981132 0.677966102,1.96981132 C0.271186441,1.90188679 0,1.63018868 0,1.29056604 Z M1.22033898,1.22264151 C1.22033898,0.950943396 0.949152542,0.679245283 0.677966102,0.679245283 C0.338983051,0.679245283 0.0677966102,0.950943396 0.0677966102,1.22264151 C0.0677966102,1.56226415 0.338983051,1.76603774 0.610169492,1.76603774 C0.949152542,1.83396226 1.22033898,1.56226415 1.22033898,1.22264151 Z"></path>
                        <path d="M0.406779661,0.983018868 C0.406779661,0.983018868 0.506779661,0.883018868 0.506779661,0.883018868 L0.906779661,0.883018868 C1.00677966,0.883018868 1.20677966,0.883018868 1.20677966,0.983018868 C1.30677966,0.983018868 1.30677966,1.08301887 1.30677966,1.18301887 C1.30677966,1.28301887 1.20677966,1.38301887 1.00677966,1.48301887 L1.20677966,1.68301887 C1.20677966,1.68301887 1.20677966,1.68301887 1.20677966,1.78301887 C1.20677966,1.78301887 1.10677966,1.88301887 1.10677966,1.88301887 C1.10677966,1.88301887 1.00677966,1.88301887 1.00677966,1.88301887 L0.806779661,1.48301887 L0.806779661,1.48301887 L0.606779661,1.48301887 L0.606779661,1.78301887 C0.606779661,1.78301887 0.506779661,1.88301887 0.506779661,1.88301887 C0.506779661,1.88301887 0.406779661,1.88301887 0.406779661,1.78301887 L0.406779661,0.983018868 L0.406779661,0.983018868 Z M0.806779661,1.38301887 C0.906779661,1.38301887 1.00677966,1.38301887 1.00677966,1.28301887 C1.00677966,1.18301887 1.00677966,1.08301887 0.806779661,1.08301887 L0.506779661,1.08301887 L0.506779661,1.38301887 L0.806779661,1.38301887 L0.806779661,1.38301887 Z"></path>
                    </g>
                </g>
            </g>
        </g>
    </g>
</svg>