<?xml version="1.0" encoding="UTF-8"?>
<svg width="572px" height="382px" viewBox="0 0 572 382" version="1.1" xmlns="http://www.w3.org/2000/svg" xmlns:xlink="http://www.w3.org/1999/xlink">
    <!-- Generator: sketchtool 61.2 (101010) - https://sketch.com -->
    <title>67051DC7-8E59-4398-AD05-3CBEA4FC0B3E</title>
    <desc>Created with sketchtool.</desc>
    <defs>
        <linearGradient x1="94.6924354%" y1="50%" x2="-1.83780012%" y2="75.8530256%" id="linearGradient-1">
            <stop stop-color="#4CA476" offset="0%"></stop>
            <stop stop-color="#338B73" offset="100%"></stop>
        </linearGradient>
        <linearGradient x1="98.8324837%" y1="50%" x2="-6.63975367%" y2="53.7045328%" id="linearGradient-2">
            <stop stop-color="#4CA476" offset="0%"></stop>
            <stop stop-color="#338B73" offset="100%"></stop>
        </linearGradient>
        <linearGradient x1="98.831004%" y1="50%" x2="-6.63803737%" y2="75.8530256%" id="linearGradient-3">
            <stop stop-color="#4CA476" offset="0%"></stop>
            <stop stop-color="#338B73" offset="100%"></stop>
        </linearGradient>
        <linearGradient x1="98.8324837%" y1="50%" x2="-6.63975367%" y2="53.1367062%" id="linearGradient-4">
            <stop stop-color="#4CA476" offset="0%"></stop>
            <stop stop-color="#338B73" offset="100%"></stop>
        </linearGradient>
        <linearGradient x1="70.5615322%" y1="50%" x2="26.1511185%" y2="75.8530256%" id="linearGradient-5">
            <stop stop-color="#4CA476" offset="0%"></stop>
            <stop stop-color="#338B73" offset="100%"></stop>
        </linearGradient>
        <linearGradient x1="89.4561622%" y1="50%" x2="4.23564117%" y2="75.853026%" id="linearGradient-6">
            <stop stop-color="#4CA476" offset="0%"></stop>
            <stop stop-color="#338B73" offset="100%"></stop>
        </linearGradient>
        <linearGradient x1="86.0778722%" y1="50%" x2="8.15404748%" y2="75.853026%" id="linearGradient-7">
            <stop stop-color="#4CA476" offset="0%"></stop>
            <stop stop-color="#338B73" offset="100%"></stop>
        </linearGradient>
        <linearGradient x1="89.3776317%" y1="50%" x2="4.32672702%" y2="75.853026%" id="linearGradient-8">
            <stop stop-color="#4CA476" offset="0%"></stop>
            <stop stop-color="#338B73" offset="100%"></stop>
        </linearGradient>
        <linearGradient x1="87.497982%" y1="50%" x2="6.50689252%" y2="75.853026%" id="linearGradient-9">
            <stop stop-color="#4CA476" offset="0%"></stop>
            <stop stop-color="#338B73" offset="100%"></stop>
        </linearGradient>
        <linearGradient x1="93.5915469%" y1="50%" x2="-0.560903164%" y2="75.853026%" id="linearGradient-10">
            <stop stop-color="#4CA476" offset="0%"></stop>
            <stop stop-color="#338B73" offset="100%"></stop>
        </linearGradient>
        <linearGradient x1="93.6127671%" y1="50%" x2="-0.585515993%" y2="75.853026%" id="linearGradient-11">
            <stop stop-color="#4CA476" offset="0%"></stop>
            <stop stop-color="#338B73" offset="100%"></stop>
        </linearGradient>
        <linearGradient x1="93.2527264%" y1="50%" x2="-0.167912451%" y2="75.853026%" id="linearGradient-12">
            <stop stop-color="#4CA476" offset="0%"></stop>
            <stop stop-color="#338B73" offset="100%"></stop>
        </linearGradient>
        <linearGradient x1="33.169852%" y1="42.7587352%" x2="59.022878%" y2="61.9438637%" id="linearGradient-13">
            <stop stop-color="#4CA476" offset="0%"></stop>
            <stop stop-color="#338B73" offset="100%"></stop>
        </linearGradient>
        <linearGradient x1="33.169852%" y1="42.7528824%" x2="59.022878%" y2="61.9535173%" id="linearGradient-14">
            <stop stop-color="#4CA476" offset="0%"></stop>
            <stop stop-color="#338B73" offset="100%"></stop>
        </linearGradient>
        <linearGradient x1="33.169852%" y1="42.6642335%" x2="59.022878%" y2="62.0997363%" id="linearGradient-15">
            <stop stop-color="#4CA476" offset="0%"></stop>
            <stop stop-color="#338B73" offset="100%"></stop>
        </linearGradient>
        <linearGradient x1="50%" y1="171.954023%" x2="50%" y2="10.8965517%" id="linearGradient-16">
            <stop stop-color="#FFFFFF" offset="0%"></stop>
            <stop stop-color="#FFFFFF" stop-opacity="0.82" offset="12%"></stop>
            <stop stop-color="#FFFFFF" stop-opacity="0.58" offset="30%"></stop>
            <stop stop-color="#FFFFFF" stop-opacity="0.37" offset="47%"></stop>
            <stop stop-color="#FFFFFF" stop-opacity="0.21" offset="64%"></stop>
            <stop stop-color="#FFFFFF" stop-opacity="0.1" offset="78%"></stop>
            <stop stop-color="#FFFFFF" stop-opacity="0.02" offset="91%"></stop>
            <stop stop-color="#FFFFFF" stop-opacity="0" offset="100%"></stop>
        </linearGradient>
        <linearGradient x1="98.8324837%" y1="50%" x2="-6.63975367%" y2="75.853026%" id="linearGradient-17">
            <stop stop-color="#4CA476" offset="0%"></stop>
            <stop stop-color="#338B73" offset="100%"></stop>
        </linearGradient>
        <linearGradient x1="98.8324837%" y1="50%" x2="-6.63975367%" y2="52.6168853%" id="linearGradient-18">
            <stop stop-color="#4CA476" offset="0%"></stop>
            <stop stop-color="#338B73" offset="100%"></stop>
        </linearGradient>
        <linearGradient x1="98.8324837%" y1="50%" x2="-6.63975367%" y2="51.205613%" id="linearGradient-19">
            <stop stop-color="#4CA476" offset="0%"></stop>
            <stop stop-color="#338B73" offset="100%"></stop>
        </linearGradient>
        <linearGradient x1="98.8324837%" y1="50%" x2="-6.63975367%" y2="64.0626564%" id="linearGradient-20">
            <stop stop-color="#4CA476" offset="0%"></stop>
            <stop stop-color="#338B73" offset="100%"></stop>
        </linearGradient>
        <linearGradient x1="98.8324837%" y1="50%" x2="-6.63975367%" y2="64.0902438%" id="linearGradient-21">
            <stop stop-color="#4CA476" offset="0%"></stop>
            <stop stop-color="#338B73" offset="100%"></stop>
        </linearGradient>
        <linearGradient x1="98.8324837%" y1="50%" x2="-6.63975367%" y2="52.8453578%" id="linearGradient-22">
            <stop stop-color="#4CA476" offset="0%"></stop>
            <stop stop-color="#338B73" offset="100%"></stop>
        </linearGradient>
    </defs>
    <g id="Page-2" stroke="none" stroke-width="1" fill="none" fill-rule="evenodd">
        <g id="404-Page" transform="translate(-434.000000, -263.000000)">
            <g id="Error-Page-404-01" transform="translate(435.000000, 263.000000)">
                <rect id="Rectangle" stroke="#479F76" x="204.99" y="104.77" width="279.69" height="205.23" rx="15.56"></rect>
                <line x1="204.99" y1="132.76" x2="484.68" y2="132.76" id="Path" stroke="#479F76"></line>
                <circle id="Oval" stroke="#479F76" cx="232.38" cy="119.45" r="4.69"></circle>
                <circle id="Oval" stroke="#479F76" cx="246.71" cy="119.45" r="4.69"></circle>
                <circle id="Oval" stroke="#479F76" cx="261.05" cy="119.45" r="4.69"></circle>
                <rect id="Rectangle" stroke="#479F76" x="233.44" y="156.83" width="69.02" height="122.29" rx="12.62"></rect>
                <rect id="Rectangle" stroke="#479F76" x="323.95" y="229.48" width="60.92" height="49.64" rx="12.62"></rect>
                <rect id="Rectangle" stroke="#479F76" x="399.24" y="229.48" width="60.92" height="49.64" rx="12.62"></rect>
                <path d="M452.19,156.83 L328.29,156.83 C323.871722,156.83 320.29,160.411722 320.29,164.83 C320.29,169.248278 323.871722,172.83 328.29,172.83 L452.19,172.83 C456.608278,172.83 460.19,169.248278 460.19,164.83 C460.19,160.411722 456.608278,156.83 452.19,156.83 L452.19,156.83 Z" id="Path" stroke="#479F76"></path>
                <path d="M452.19,191.4 L328.29,191.4 C323.871722,191.4 320.29,194.981722 320.29,199.4 C320.29,203.818278 323.871722,207.4 328.29,207.4 L452.19,207.4 C456.608278,207.4 460.19,203.818278 460.19,199.4 C460.19,194.981722 456.608278,191.4 452.19,191.4 L452.19,191.4 Z" id="Path" stroke="#479F76"></path>
                <rect id="Rectangle" fill="#ADD9C8" fill-rule="nonzero" x="138.57" y="0" width="279.69" height="205.23" rx="15.56"></rect>
                <line x1="138.57" y1="27.99" x2="418.26" y2="27.99" id="Path" stroke="#FFFFFF"></line>
                <circle id="Oval" stroke="#FFFFFF" cx="165.96" cy="14.68" r="4.69"></circle>
                <circle id="Oval" stroke="#FFFFFF" cx="180.3" cy="14.68" r="4.69"></circle>
                <circle id="Oval" stroke="#FFFFFF" cx="194.63" cy="14.68" r="4.69"></circle>
                <rect id="Rectangle" stroke="#FFFFFF" x="167.02" y="52.06" width="69.02" height="122.29" rx="12.62"></rect>
                <rect id="Rectangle" stroke="#FFFFFF" x="257.53" y="124.71" width="60.92" height="49.64" rx="12.62"></rect>
                <g id="Group" opacity="0.5" transform="translate(214.000000, 95.000000)" fill="#FFFFFF" fill-rule="nonzero" stroke="#479F76">
                    <rect id="Rectangle" x="0.3" y="0.09" width="279.69" height="205.23" rx="15.56"></rect>
                    <line x1="0.3" y1="28.08" x2="279.99" y2="28.08" id="Path"></line>
                    <circle id="Oval" cx="27.69" cy="14.77" r="4.69"></circle>
                    <circle id="Oval" cx="42.02" cy="14.77" r="4.69"></circle>
                    <circle id="Oval" cx="56.36" cy="14.77" r="4.69"></circle>
                    <rect id="Rectangle" x="28.75" y="52.16" width="69.02" height="122.29" rx="12.62"></rect>
                    <rect id="Rectangle" x="119.26" y="124.8" width="60.92" height="49.64" rx="12.62"></rect>
                    <rect id="Rectangle" x="194.55" y="124.8" width="60.92" height="49.64" rx="12.62"></rect>
                    <path d="M247.5,52.16 L123.6,52.16 C119.181722,52.16 115.6,55.741722 115.6,60.16 C115.6,64.578278 119.181722,68.16 123.6,68.16 L247.5,68.16 C251.918278,68.16 255.5,64.578278 255.5,60.16 C255.5,55.741722 251.918278,52.16 247.5,52.16 Z" id="Path"></path>
                    <path d="M247.5,86.72 L123.6,86.72 C119.181722,86.72 115.6,90.301722 115.6,94.72 C115.6,99.138278 119.181722,102.72 123.6,102.72 L247.5,102.72 C251.918278,102.72 255.5,99.138278 255.5,94.72 C255.5,90.301722 251.918278,86.72 247.5,86.72 Z" id="Path"></path>
                </g>
                <rect id="Rectangle" stroke="#FFFFFF" x="332.82" y="124.71" width="60.92" height="49.64" rx="12.62"></rect>
                <path d="M385.77,52.06 L261.88,52.06 C257.461722,52.06 253.88,55.641722 253.88,60.06 C253.88,64.478278 257.461722,68.06 261.88,68.06 L385.77,68.06 C390.188278,68.06 393.77,64.478278 393.77,60.06 C393.77,55.641722 390.188278,52.06 385.77,52.06 Z" id="Path" stroke="#FFFFFF"></path>
                <path d="M385.77,86.63 L261.88,86.63 C257.461722,86.63 253.88,90.211722 253.88,94.63 C253.88,99.048278 257.461722,102.63 261.88,102.63 L385.77,102.63 C390.188278,102.63 393.77,99.048278 393.77,94.63 C393.77,90.211722 390.188278,86.63 385.77,86.63 Z" id="Path" stroke="#FFFFFF"></path>
                <path d="M559.78,364.08 C560.11,364.99 553.78,376.08 552.67,376.96 C551.56,377.84 542.91,378.5 542.67,377.18 C542.43,375.86 547.6,373.03 547.6,373.03 L548.6,367.33 L554.55,360.02 C556.361523,361.283132 558.107144,362.638241 559.78,364.08 Z" id="Path" fill="url(#linearGradient-1)" fill-rule="nonzero"></path>
                <path d="M491.37,372 C493.22,375.8 494.37,378.35 494.15,378.67 C493.29,380.12 470.67,382.42 470.28,379.98 C469.89,377.54 481.43,372.82 481.43,372.82 C484.737338,373.716802 488.254337,373.426668 491.37,372 L491.37,372 Z" id="Path" fill="url(#linearGradient-2)" fill-rule="nonzero"></path>
                <path d="M404,257.38 C394.198283,282.086105 366.640326,294.647946 341.562322,285.841189 C316.484317,277.034432 302.831428,250.000389 310.629161,224.590536 C318.426893,199.180683 344.893847,184.45855 370.594969,191.234805 C396.29609,198.01106 412.063955,223.868656 406.32,249.82 L405.11,254.33 C404.81,255.35 404.45,256.38 404,257.38 Z M396.65,239.05 C396.649998,223.221573 387.114114,208.952091 372.48978,202.896684 C357.865445,196.841278 341.033367,200.192742 329.84384,211.387991 C318.654313,222.583239 315.311455,239.417029 321.374337,254.038266 C327.43722,268.659503 341.711575,278.18809 357.54,278.18002 C367.923012,278.190621 377.884107,274.072057 385.227885,266.732031 C392.571662,259.392005 396.695315,249.433016 396.690005,239.05 L396.65,239.05 Z" id="Shape" fill="url(#linearGradient-3)" fill-rule="nonzero"></path>
                <path d="M453.48,257.8 L459.54,259.01 L459.85,259.07 L462.71,259.66 L461.22,268.9 L458,268.25 L427.09,262.06 C426.25,261.72 425.28,261.15 425.09,260.3 C424.81,258.97 421.32,257.94 419.86,257.66 C419.699856,257.616535 419.535652,257.589726 419.37,257.58 C418.6,257.58 416.97,258.15 418.12,260.27 L404,257.38 C404.41,256.38 404.77,255.38 405.11,254.38 C405.52,253.07 405.89,251.73 406.2,250.38 C406.2,250.22 406.27,250.03 406.32,249.86 L406.7,248.45 L439.12,254.96 L439.12,254.96 L453.48,257.8 Z" id="Path" fill="url(#linearGradient-4)" fill-rule="nonzero"></path>
                <path d="M499.18,310.09 C499.18,310.09 514.66,301.91 518.5,291.81 C515,306.21 500,321.63 500,321.63 C499.43,315.36 499.15,310.13 499.15,310.13 L499.18,310.09 Z" id="Path" fill="url(#linearGradient-5)" fill-rule="nonzero"></path>
                <path d="M554.53,360 L548.58,367.31 L547.81,367.84 C546.95,368.04 506.59,346.91 503.62,342.01 C501.95,339.26 500.76,329.59 500.04,321.61 C500.04,321.61 515.04,306.19 518.5,291.79 C518.796685,291.035503 519.024285,290.255638 519.18,289.46 L519.18,289.56 C521.18,312.71 515.53,323.18 518.61,330.09 C521,335.45 544,352.22 554.53,360 Z" id="Path" fill="#B4DBCC" fill-rule="nonzero"></path>
                <path d="M553.28,274.51 C553.54,276.1 553.9,280.88 547.13,282.51 C545.84,282.81 548.55,277.51 547.2,275.21 C546.2,273.52 544.04,272.82 542.92,272.55 L542.42,272.44 L542.34,272.44 C542.26,272.44 542.22,272.44 542.22,272.44 C542.22,272.44 543.51,270.73 543.51,270.73 L544.77,270.04 L549.56,267.38 L549.61,267.38 C551.76,271.47 553.19,274.22 553.19,274.22 L553.28,274.51 Z" id="Path" fill="#FDC7B0" fill-rule="nonzero"></path>
                <path d="M549.61,267.27 L549.56,267.27 L544.77,269.93 C544.77,269.93 525.68,243.33 522.65,241.37 C519.62,239.41 493.54,233.9 491.37,235.96 C490.02,237.25 500.37,251.58 509.62,266.04 L472.76,258.91 C471.47,255.91 470.38,253.25 469.7,251.13 C469.28,249.7 468.89,248.26 468.52,246.78 C467.07,240.84 466.23,234.61 467.12,229.11 C467.12,229.11 468.75,229.92 476.82,225.11 C480.548892,224.541622 484.338979,224.497864 488.08,224.98 C494.88,225.81 525.82,230.18 529.52,232.98 C532.24,234.91 543.68,256.08 549.61,267.27 Z" id="Path" fill="#D7EAE3" fill-rule="nonzero"></path>
                <path d="M544.77,269.94 L543.51,270.63 C543.51,270.63 528.51,250 523,246.35 C517.49,242.7 505,239.72 495.33,239.25 C495.33,239.25 505.26,253.3 513.53,266.82 L509.6,266.05 C500.37,251.59 490,237.26 491.35,235.97 C493.52,233.91 519.59,239.43 522.63,241.38 C525.67,243.33 544.77,269.94 544.77,269.94 Z" id="Path" fill="#B4DBCC" fill-rule="nonzero"></path>
                <path d="M524.56,289.57 L522.19,289.52 C521.456778,287.332559 520.567837,285.200438 519.53,283.14 L522.86,283.87 C523.737119,285.663252 524.31154,287.589253 524.56,289.57 Z" id="Path" fill="#B4DBCC" fill-rule="nonzero"></path>
                <path d="M522.19,289.52 L519.19,289.52 L491.63,289 L488.77,288.95 L487.67,288.95 C487.67,288.95 484.21,282.52 480.27,274.68 L519.53,283.18 C520.566085,285.227491 521.455001,287.346186 522.19,289.52 L522.19,289.52 Z" id="Path" fill="#D7EAE3" fill-rule="nonzero"></path>
                <path d="M491.63,289 L519.18,289.51 C519.024285,290.305638 518.796685,291.085503 518.5,291.84 C514.66,301.94 499.18,310.12 499.18,310.12 C492.46,313.76 472.82,324.66 471.64,328.32 C470.51,331.74 485.09,359.07 491.37,371.98 C488.254337,373.406668 484.737338,373.696802 481.43,372.8 C481.43,372.8 454.65,335.65 454.02,325.8 C453.39,316.19 486.95,290.37 488.77,288.95 L491.63,289 Z" id="Path" fill="#B4DBCC" fill-rule="nonzero"></path>
                <path d="M471,217.41 C472.042619,218.340142 473.018371,219.342627 473.92,220.41 C473.960659,220.61093 474.017511,220.808241 474.09,221 C475.09,223.69 475.76,225.09 476.78,225.09 C468.71,229.94 467.08,229.09 467.08,229.09 L466.99,229.23 C466.99,229.23 467.08,227.23 464.82,223.99 C464.77,223.99 460.16,224.62 459.44,224.28 C458.72,223.94 456.72,215.49 456.44,209.84 C456.96,209.74 462.61,208.52 463.74,209.52 C464.87,210.52 464.96,211.97 465.99,214.52 C467.49,214.27 466.49,212.52 466.85,212.24 C467.378507,212.099119 467.941653,212.180837 468.408319,212.466126 C468.874986,212.751416 469.204449,213.215383 469.32,213.75 C469.536517,214.485971 469.60116,215.258276 469.51,216.02 L469.66,216.02 L470.07,216.41 L470.51,216.83 C470.7,217.07 470.87,217.22 471,217.41 Z" id="Path" fill="#FDC7B0" fill-rule="nonzero"></path>
                <path d="M475,206 C476.86,210.09 473.31,217.19 474,220.4 C473.098371,219.332627 472.122619,218.330142 471.08,217.4 C470.91,217.21 470.74,217.06 470.59,216.92 C470.44,216.78 470.28,216.61 470.15,216.5 L469.74,216.11 L469.59,216.11 C469.68116,215.348276 469.616517,214.575971 469.4,213.84 C469.284449,213.305383 468.954986,212.841416 468.488319,212.556126 C468.021653,212.270837 467.458507,212.189119 466.93,212.33 C466.57,212.66 467.57,214.33 466.07,214.61 C465.07,213.03 465.01,210.61 463.82,209.61 C462.63,208.61 457.04,209.83 456.52,209.93 C456.52,209.93 452.52,206.07 452.07,203.04 C452.07,203.04 461.26,202.87 464.07,202.04 C466.88,201.21 473,201.65 475,206 Z" id="Path" fill="#122C45" fill-rule="nonzero"></path>
                <path d="M468.52,246.79 C468.89,248.27 469.28,249.71 469.7,251.14 C467.9185,253.467425 465.758396,255.478788 463.31,257.09 L463.12,257.09 L463.12,257.26 C462.085107,257.949565 461.002362,258.564457 459.88,259.1 L459.57,259.04 L453.51,257.83 C460.49,255.39 468.52,246.79 468.52,246.79 Z" id="Path" fill="#B4DBCC" fill-rule="nonzero"></path>
                <path d="M467,229.26 L467.09,229.12 C466.2,234.62 467.04,240.85 468.49,246.79 C468.49,246.79 460.49,255.39 453.49,257.79 L439.19,254.91 C444.29,253.99 450.71,252.52 453.09,250.47 C457.22,246.93 463.66,237.89 467,229.26 Z" id="Path" fill="#D7EAE3" fill-rule="nonzero"></path>
                <path d="M427.09,262.06 C427.516685,262.224067 427.954445,262.357734 428.4,262.46 C428.4,262.46 421.84,264.82 419.09,261.63 C418.705678,261.216463 418.370144,260.760138 418.09,260.27 C416.94,258.15 418.57,257.54 419.34,257.58 C419.505652,257.589726 419.669856,257.616535 419.83,257.66 C421.29,257.94 424.78,258.97 425.06,260.3 C425.28,261.15 426.25,261.72 427.09,262.06 Z" id="Path" fill="#FDC7B0" fill-rule="nonzero"></path>
                <path d="M394.060001,239.05 C394.060001,224.286218 385.165978,210.976361 371.525635,205.327441 C357.885292,199.678521 342.185207,202.80314 331.747067,213.24414 C321.308927,223.685141 318.188611,239.386081 323.841268,253.024876 C329.493925,266.66367 342.806219,275.554045 357.57,275.550001 C367.249483,275.550001 376.532373,271.704157 383.375863,264.858791 C390.219353,258.013426 394.062653,248.729482 394.060001,239.05 Z" id="Path" fill="#D2DAE0" fill-rule="nonzero" style="mix-blend-mode: hard-light;"></path>
                <path d="M352.620317,226.83031 C352.628391,222.455353 349.998674,218.506868 345.958672,216.827968 C341.91867,215.149068 337.265034,216.070817 334.170034,219.162951 C331.075034,222.255085 330.148975,226.907865 331.824131,230.949421 C333.499288,234.990976 337.445336,237.62435 341.820299,237.620315 C347.781071,237.620315 352.614779,232.79108 352.620317,226.83031 Z" id="Path" fill="#A5B6C4" fill-rule="nonzero" style="mix-blend-mode: screen;"></path>
                <g id="Group" opacity="0.5" transform="translate(0.000000, 119.000000)" fill="#FFFFFF" fill-rule="nonzero" stroke="#479F76">
                    <rect id="Rectangle" x="0.43" y="0.12" width="156.05" height="114.51" rx="8.68"></rect>
                    <line x1="0.43" y1="15.74" x2="156.48" y2="15.74" id="Path"></line>
                    <circle id="Oval" cx="15.71" cy="8.31" r="2.62"></circle>
                    <circle id="Oval" cx="24.07" cy="8.31" r="2.62"></circle>
                    <circle id="Oval" cx="32.44" cy="8.31" r="2.62"></circle>
                </g>
                <path d="M43.13,200 L43.13,194.26 L25.92,194.26 L25.92,185.94 L39,164.2 L54,164.2 L54,184.8 L58.1,184.8 L58.1,194.24 L54,194.24 L54,200 L43.13,200 Z M43.13,173.55 L36.37,184.8 L43.13,184.8 L43.13,173.55 Z" id="Shape" fill="url(#linearGradient-6)" fill-rule="nonzero"></path>
                <path d="M63.24,182.12 C63.24,172.41 68.45,163.67 79.12,163.67 C89.79,163.67 95,172.41 95,182.12 C95,191.83 89.8,200.62 79.13,200.62 C68.46,200.62 63.24,191.82 63.24,182.12 Z M84.11,182.12 C84.11,176.05 82.55,173.21 79.11,173.21 C75.67,173.21 74.11,176.05 74.11,182.12 C74.11,188.19 75.67,191.07 79.11,191.07 C82.55,191.07 84.11,188.18 84.11,182.12 Z" id="Shape" fill="url(#linearGradient-7)" fill-rule="nonzero"></path>
                <path d="M117.36,200 L117.36,194.26 L100.14,194.26 L100.14,185.94 L113.14,164.22 L128.14,164.22 L128.14,184.82 L132.27,184.82 L132.27,194.26 L128.14,194.26 L128.14,200 L117.36,200 Z M117.36,173.55 L110.6,184.8 L117.36,184.8 L117.36,173.55 Z" id="Shape" fill="url(#linearGradient-8)" fill-rule="nonzero"></path>
                <rect id="Rectangle" fill="#DAF4EA" fill-rule="nonzero" x="20.61" y="278.05" width="213.88" height="43.49"></rect>
                <rect id="Rectangle" fill="#B4DBCC" fill-rule="nonzero" x="20.61" y="278.05" width="213.88" height="10.56"></rect>
                <polygon id="Path" fill="#F47E39" fill-rule="nonzero" points="39.2 278.05 58.72 278.05 53.49 288.61 33.96 288.61"></polygon>
                <polygon id="Path" fill="#F47E39" fill-rule="nonzero" points="83.18 278.05 102.7 278.05 97.47 288.61 77.95 288.61"></polygon>
                <polygon id="Path" fill="#F47E39" fill-rule="nonzero" points="127.16 278.05 146.69 278.05 141.45 288.61 121.93 288.61"></polygon>
                <polygon id="Path" fill="#F47E39" fill-rule="nonzero" points="171.15 278.05 190.66 278.05 185.42 288.61 165.91 288.61"></polygon>
                <polygon id="Path" fill="#F47E39" fill-rule="nonzero" points="234.49 278.05 234.49 278.34 229.39 288.61 209.89 288.61 215.13 278.05"></polygon>
                <rect id="Rectangle" fill="#DAF4EA" fill-rule="nonzero" x="47.23" y="321.54" width="15.08" height="59.46"></rect>
                <rect id="Rectangle" fill="#B4DBCC" fill-rule="nonzero" x="58.88" y="321.54" width="3.43" height="59.46"></rect>
                <rect id="Rectangle" fill="#DAF4EA" fill-rule="nonzero" x="193.96" y="321.54" width="15.08" height="59.46"></rect>
                <rect id="Rectangle" fill="#B4DBCC" fill-rule="nonzero" x="204.58" y="321.54" width="4.46" height="59.46"></rect>
                <rect id="Rectangle" fill="#B4DBCC" fill-rule="nonzero" x="47.23" y="321.49" width="15.08" height="7.49"></rect>
                <rect id="Rectangle" fill="#B4DBCC" fill-rule="nonzero" x="193.96" y="321.49" width="15.08" height="7.49"></rect>
                <rect id="Rectangle" fill="#DAF4EA" fill-rule="nonzero" x="47.23" y="271.25" width="15.08" height="6.75"></rect>
                <rect id="Rectangle" fill="#B4DBCC" fill-rule="nonzero" x="58.88" y="271.25" width="3.43" height="6.75"></rect>
                <rect id="Rectangle" fill="#DAF4EA" fill-rule="nonzero" x="193.96" y="271.25" width="15.08" height="6.75"></rect>
                <rect id="Rectangle" fill="#B4DBCC" fill-rule="nonzero" x="204.58" y="271.25" width="4.46" height="6.75"></rect>
                <rect id="Rectangle" fill="#B4DBCC" fill-rule="nonzero" x="47.23" y="277.16" width="15.08" height="1"></rect>
                <rect id="Rectangle" fill="#B4DBCC" fill-rule="nonzero" x="193.96" y="277.16" width="15.08" height="1"></rect>
                <polygon id="Path" fill="url(#linearGradient-9)" fill-rule="nonzero" points="58.72 278.05 37.16 321.54 20.61 321.54 20.61 315.54 39.2 278.05"></polygon>
                <polygon id="Path" fill="url(#linearGradient-10)" fill-rule="nonzero" points="83.18 278.05 61.61 321.54 81.14 321.54 102.7 278.05"></polygon>
                <polygon id="Path" fill="url(#linearGradient-11)" fill-rule="nonzero" points="146.69 278.05 125.12 321.54 105.59 321.54 127.16 278.05"></polygon>
                <polygon id="Path" fill="url(#linearGradient-10)" fill-rule="nonzero" points="190.66 278.05 169.1 321.54 149.57 321.54 171.15 278.05"></polygon>
                <polygon id="Path" fill="url(#linearGradient-12)" fill-rule="nonzero" points="215.13 278.05 193.56 321.54 213.07 321.54 234.49 278.34"></polygon>
                <polygon id="Path" fill="url(#linearGradient-13)" fill-rule="nonzero" points="58.72 278.05 53.49 288.61 33.96 288.61 39.2 278.05"></polygon>
                <polygon id="Path" fill="url(#linearGradient-14)" fill-rule="nonzero" points="102.7 278.05 97.47 288.61 77.95 288.61 83.18 278.05"></polygon>
                <polygon id="Path" fill="url(#linearGradient-13)" fill-rule="nonzero" points="146.69 278.05 141.45 288.61 121.93 288.61 127.16 278.05"></polygon>
                <polygon id="Path" fill="url(#linearGradient-14)" fill-rule="nonzero" points="190.66 278.05 185.42 288.61 165.91 288.61 171.15 278.05"></polygon>
                <polygon id="Path" fill="url(#linearGradient-15)" fill-rule="nonzero" points="234.49 278.34 229.39 288.61 209.89 288.61 215.13 278.05"></polygon>
                <rect id="Rectangle" fill="url(#linearGradient-16)" fill-rule="nonzero" opacity="0.55" style="mix-blend-mode: overlay;" x="26.57" y="296.86" width="204.24" height="21.75"></rect>
                <circle id="Oval" fill="url(#linearGradient-17)" fill-rule="nonzero" transform="translate(54.397400, 262.641000) rotate(-9.180542) translate(-54.397400, -262.641000) " cx="54.3974" cy="262.641" r="13.4782496"></circle>
                <path d="M60.4700082,261.82 C60.4740443,259.350965 58.9893113,257.122985 56.708992,256.176257 C54.4286726,255.229529 51.8025306,255.750783 50.0566568,257.496657 C48.3107831,259.242531 47.7895288,261.868673 48.7362568,264.148992 C49.6829848,266.429311 51.910965,267.914044 54.38,267.910008 C57.7434141,267.910008 60.4700082,265.183414 60.4700082,261.82 Z" id="Path" fill="#B4DBCC" fill-rule="nonzero"></path>
                <circle id="Oval" fill="url(#linearGradient-17)" fill-rule="nonzero" transform="translate(201.396272, 261.838274) rotate(-9.240000) translate(-201.396272, -261.838274) " cx="201.396272" cy="261.838274" r="13.44"></circle>
                <path d="M207.5,261.82 C207.5,258.456586 204.773414,255.73 201.41,255.73 C198.046586,255.73 195.32,258.456586 195.32,261.82 C195.32,265.183414 198.046586,267.91 201.41,267.91 C203.025168,267.91 204.574184,267.268377 205.71628,266.12628 C206.858377,264.984184 207.5,263.435168 207.5,261.82 L207.5,261.82 Z" id="Path" fill="#B4DBCC" fill-rule="nonzero"></path>
                <path d="M325.52,376.45 L257.4,376.45 L267.82,351.19 L267.82,351.19 L272,341 L273.16,338.21 L275.04,333.66 L275.42,332.74 L279.61,322.54 L280.38,320.69 L287.81,302.69 C288.419889,301.217832 289.8565,300.257979 291.45,300.257979 C293.0435,300.257979 294.480111,301.217832 295.09,302.69 L302.52,320.69 L303.29,322.54 L307.48,332.74 L307.86,333.66 L309.74,338.21 L310.9,341 L315.09,351.19 L315.09,351.19 L325.52,376.45 Z" id="Path" fill="#DAF4EA" fill-rule="nonzero"></path>
                <polygon id="Path" fill="#B4DBCC" fill-rule="nonzero" points="261.87 365.62 257.4 376.44 325.53 376.44 321.06 365.62"></polygon>
                <rect id="Rectangle" fill="#DAF4EA" fill-rule="nonzero" x="251.96" y="369.97" width="78.02" height="11.03"></rect>
                <rect id="Rectangle" fill="#B4DBCC" fill-rule="nonzero" x="313.12" y="369.97" width="16.86" height="11.03"></rect>
                <path d="M322.84,370 L313.2,370 L305.46,351.22 L305.46,351.22 L301.27,341 L300.12,338.21 L298.24,333.66 L297.85,332.73 L293.66,322.54 L292.89,320.69 L286.65,305.51 L287.82,302.66 C288.429889,301.187832 289.8665,300.227979 291.46,300.227979 C293.0535,300.227979 294.490111,301.187832 295.1,302.66 L302.53,320.66 L303.3,322.51 L307.49,332.7 L307.87,333.63 L309.75,338.18 L310.91,340.97 L315.1,351.16 L315.1,351.16 L322.84,370 Z" id="Path" fill="#B4DBCC" fill-rule="nonzero"></path>
                <polygon id="Path" fill="url(#linearGradient-18)" fill-rule="nonzero" points="307.49 332.72 275.43 332.72 279.62 322.52 303.3 322.52"></polygon>
                <polygon id="Path" fill="url(#linearGradient-19)" fill-rule="nonzero" points="315.1 351.17 315.1 351.19 267.82 351.19 267.82 351.17 272.01 340.98 310.91 340.98"></polygon>
                <polygon id="Path" fill="url(#linearGradient-20)" fill-rule="nonzero" points="307.49 332.72 297.85 332.72 293.66 322.52 303.3 322.52"></polygon>
                <polygon id="Path" fill="url(#linearGradient-21)" fill-rule="nonzero" points="315.1 351.17 315.1 351.19 305.46 351.19 305.46 351.17 301.27 340.98 310.91 340.98"></polygon>
                <path d="M570.57,277.86 L566.93,293.41 L522.86,283.87 L519.53,283.14 L480.27,274.64 L461,270.46 L461.25,268.9 L461.38,268.9 L462.77,259.63 L462.77,259.63 L463.15,257.2 L463.37,257.06 L472.82,258.89 L509.68,266.02 L513.61,266.79 L542.4,272.35 L542.48,272.35 L542.98,272.46 C544.1,272.73 546.29,273.46 547.26,275.12 C548.61,277.42 545.9,282.72 547.19,282.42 C553.96,280.83 553.6,276.05 553.34,274.42 L570.57,277.86 Z" id="Path" fill="url(#linearGradient-22)" fill-rule="nonzero"></path>
            </g>
        </g>
    </g>
</svg>